Coordinates
version=1
nRows=13
nColumns=40
inDegrees=yes

Units are S.I. units (second, meters, Newtons, ...)
Angles are in degrees.

endheader
time	pelvis_tilt	pelvis_list	pelvis_rotation	pelvis_tx	pelvis_ty	pelvis_tz	hip_flexion_r	hip_adduction_r	hip_rotation_r	knee_angle_r	knee_angle_r_beta	ankle_angle_r	subtalar_angle_r	mtp_angle_r	hip_flexion_l	hip_adduction_l	hip_rotation_l	knee_angle_l	knee_angle_l_beta	ankle_angle_l	subtalar_angle_l	mtp_angle_l	lumbar_extension	lumbar_bending	lumbar_rotation	arm_flex_r	arm_add_r	arm_rot_r	elbow_flex_r	pro_sup_r	wrist_flex_r	wrist_dev_r	arm_flex_l	arm_add_l	arm_rot_l	elbow_flex_l	pro_sup_l	wrist_flex_l	wrist_dev_l
      1.06000000	     -0.45997670	     -8.59082617	      3.52212525	      0.48489832	      0.93151061	      1.09114253	     21.68167849	      5.43532934	    -11.37445898	    -25.45420148	     -0.44425962	     -2.30804052	     -8.96620312	     -3.85499504	     -2.50914273	     19.44737715	     12.19133940	    -51.80829668	     -0.90422536	    -11.75278388	     10.71101095	    -10.97221573	      1.09907507	      5.69431646	     -7.73996265	    -12.07077652	    -13.60657131	    -18.26648252	      7.90460774	     89.95437384	      0.00000000	      0.00000000	      3.16015927	     19.03790731	      2.62784982	     59.88133020	     89.95437384	      0.00000000	      0.00000000
      1.07000000	     -0.52975368	     -8.80661132	      3.71617489	      0.49748417	      0.93368114	      1.09196979	     20.60727968	      5.81536574	    -11.47219360	    -24.88504426	     -0.43432596	     -1.82181665	     -8.93293002	     -3.64744987	      0.03864737	     19.45346499	     10.95977223	    -54.51668443	     -0.95149564	     -9.44858693	     13.25871579	    -10.68207003	      1.06278887	      5.88722022	     -7.43193124	    -11.44934781	    -13.49156008	    -18.90963620	      8.38161750	     89.95437384	      0.00000000	      0.00000000	      2.75008004	     18.80097058	      2.56665554	     58.36547938	     89.95437384	      0.00000000	      0.00000000
      1.08000000	     -0.89432896	     -8.63758822	      3.93091669	      0.50919501	      0.93552096	      1.09241162	     20.08245592	      5.69087689	    -11.48727445	    -24.81064188	     -0.43302739	     -0.65204838	     -8.84354250	      0.25644676	      3.13211398	     18.75147801	      9.44854937	    -57.28097767	     -0.99974166	     -4.92581527	     14.85027463	      2.46689417	      1.21726071	      5.64999513	     -6.96022055	    -10.68403539	    -13.21691260	    -20.91678524	      8.69728630	     89.95437384	      0.00000000	      0.00000000	      2.53453192	     18.51023274	      2.42472497	     56.59662786	     89.95437384	      0.00000000	      0.00000000
      1.09000000	     -0.85540654	     -8.48028908	      4.25883945	      0.52129168	      0.93809020	      1.09254358	     18.84622868	      5.57689722	    -11.73506754	    -24.20360868	     -0.42243266	     -0.12826989	     -8.53040620	      0.11752727	      5.47536275	     18.04532882	      8.19210318	    -59.14391781	     -1.03225610	     -3.30284446	     16.67542603	      2.83494983	      0.99327263	      5.43779371	     -6.67461946	     -9.88717864	    -13.05843280	    -21.36204964	      9.11773658	     89.95437384	      0.00000000	      0.00000000	      2.22853707	     18.28147016	      2.40464585	     54.76888623	     89.95437384	      0.00000000	      0.00000000
      1.10000000	     -0.93420930	     -8.22228848	      4.62504543	      0.53307135	      0.94045098	      1.09242992	     17.75810754	      5.26758879	    -12.24685793	    -23.63491023	     -0.41250700	      0.51541295	     -7.83126943	     -0.22442090	      7.92327543	     17.14258925	      7.00443035	    -60.74166240	     -1.06014200	     -1.32088199	     17.63111634	      4.95870890	      0.83547754	      5.10024614	     -6.40181578	     -8.93464471	    -12.83347232	    -22.56503193	      9.42212400	     89.95437384	      0.00000000	      0.00000000	      1.91555312	     18.11633743	      2.24135709	     52.89308292	     89.95437384	      0.00000000	      0.00000000
      1.11000000	     -0.80819520	     -7.84533749	      4.85059356	      0.54491965	      0.94322750	      1.09236723	     16.28937920	      5.00114665	    -12.30452323	    -22.77861779	     -0.39756188	      0.99655392	     -7.60956677	     -0.31203231	      9.83447751	     16.05253226	      6.11561477	    -61.74863552	     -1.07771700	      0.41968040	     18.22267187	      5.03035376	      0.42993294	      4.66022778	     -6.01465808	     -8.10006666	    -12.69201327	    -22.37137454	     10.02444594	     89.95437384	      0.00000000	      0.00000000	      1.59544321	     17.99243694	      2.13972969	     50.91887298	     89.95437384	      0.00000000	      0.00000000
      1.12000000	     -0.90396495	     -7.34196781	      5.31119535	      0.55646907	      0.94549172	      1.09143028	     15.13873901	      4.29739025	    -13.30372636	    -22.11174877	     -0.38592282	      1.29891096	     -6.55001151	     -2.13618191	     12.11417487	     14.54853947	      4.94028688	    -62.72931113	     -1.09483302	      4.72987906	     18.36675614	     17.11341534	      0.25710540	      4.07534894	     -5.89088716	     -7.22959456	    -12.56321252	    -22.31275729	     10.63078074	     89.95437384	      0.00000000	      0.00000000	      1.16984052	     17.83024581	      2.14973113	     48.98914865	     89.95437384	      0.00000000	      0.00000000
      1.13000000	     -1.05086109	     -7.00869622	      5.66720424	      0.56785872	      0.94752139	      1.09097282	     14.00681508	      3.89536386	    -14.15485758	    -21.27597805	     -0.37133587	      1.69980671	     -5.81926643	     -2.34950345	     14.27186651	     13.35564601	      4.09282841	    -63.12002406	     -1.10165224	      6.25979597	     18.57645814	     16.89908238	      0.12606415	      3.63390849	     -5.61355315	     -6.31420239	    -12.39350094	    -22.45676299	     11.18213245	     89.95437384	      0.00000000	      0.00000000	      0.75837095	     17.71470746	      2.07678836	     46.97783788	     89.95437384	      0.00000000	      0.00000000
      1.14000000	     -1.20992975	     -6.61185125	      5.69617420	      0.57940731	      0.94944533	      1.09082244	     12.86320642	      3.59465721	    -14.27145497	    -20.39426950	     -0.35594715	      2.15441175	     -5.41042567	     -2.42352387	     16.15148366	     12.20877577	      3.83965193	    -63.00753192	     -1.09968889	      7.31627235	     18.69070607	     16.62347115	      0.01424999	      3.14180829	     -5.10852516	     -5.28162425	    -12.28387029	    -22.35672095	     11.66168133	     89.95437384	      0.00000000	      0.00000000	      0.27532700	     17.64429136	      1.99867150	     44.86210802	     89.95437384	      0.00000000	      0.00000000
      1.15000000	     -1.42121040	     -6.22446696	      5.63983765	      0.59108990	      0.95106272	      1.09085213	     11.78914572	      3.28947769	    -14.55855565	    -19.51770346	     -0.34064819	      2.48687169	     -4.95843756	     -2.47835991	     17.98931906	     11.14743411	      3.84245461	    -62.59126274	     -1.09242362	      8.11855540	     18.77409530	     16.40120636	     -0.02737954	      2.63368320	     -4.47535439	     -4.34988854	    -12.16882980	    -22.23084804	     12.27429930	     89.95437384	      0.00000000	      0.00000000	     -0.22681669	     17.58287635	      1.99756764	     42.79498815	     89.95437384	      0.00000000	      0.00000000
      1.16000000	     -1.26841181	     -5.61911969	      5.47028695	      0.60312276	      0.95311482	      1.09070157	     10.35425956	      2.64570406	    -15.23929553	    -18.87032948	     -0.32934938	      3.03053782	     -3.17717085	     -2.91819028	     19.12461546	      9.97864070	      4.29343204	    -61.57860082	     -1.07474933	      8.98830330	     18.89224513	     16.95155934	     -0.47033019	      1.93795817	     -3.69901634	     -3.49160905	    -12.06827504	    -21.98939025	     13.14990277	     89.95437384	      0.00000000	      0.00000000	     -0.62827287	     17.54850498	      1.93524077	     40.53146623	     89.95437384	      0.00000000	      0.00000000
      1.17000000	     -1.56456592	     -5.42860055	      5.23913097	      0.61498268	      0.95390322	      1.09124952	      9.55384928	      2.56610099	    -15.60296618	    -18.29602683	     -0.31932591	      3.44580184	     -3.10976445	     -2.96547444	     20.92407895	      9.46482465	      4.96559716	    -60.58713375	     -1.05744497	      9.29984584	     18.89189395	     16.74501215	     -0.35521785	      1.58331702	     -3.03720964	     -2.47717136	    -11.97280905	    -21.76614512	     13.75348372	     89.95437384	      0.00000000	      0.00000000	     -1.57048733	     17.71078733	      1.85813973	     39.00162908	     89.95437384	      0.00000000	      0.00000000
      1.18000000	     -1.34956415	     -4.59036139	      4.49719322	      0.62715198	      0.95581693	      1.09151275	      8.00856017	      1.85691691	    -14.99571223	    -17.45771443	     -0.30469460	      3.83561525	     -1.86089784	     -3.60882970	     21.48915993	      8.20277382	      6.09728622	    -58.72588854	     -1.02496011	      9.82872498	     18.85019383	     17.21476420	     -0.86710689	      0.67999707	     -1.70269036	     -1.62304963	    -11.95390614	    -21.14756145	     14.70757079	     89.95437384	      0.00000000	      0.00000000	     -1.77857103	     17.55089464	      2.11203177	     36.23637196	     89.95437384	      0.00000000	      0.00000000
